
<svg class="star-sky" viewBox="0 0 951 364" version="1.1" xmlns="http://www.w3.org/2000/svg" xmlns:xlink="http://www.w3.org/1999/xlink">
    <!-- width: 951 height: 364 -->
    <defs></defs>
    <g id="star-sky" stroke="none" stroke-width="1" fill="none" fill-rule="evenodd">
        
        <g id="bright-yellow-stars" transform="translate(55.000000, 15.000000)" fill="#EFEC82">
            <polygon id="Star" points="21.5 61 15.3282549 64.7082039 16.5069533 56.854102 11.5139066 51.2917961 18.4141274 50.145898 21.5 43 24.5858726 50.145898 31.4860934 51.2917961 26.4930467 56.854102 27.6717451 64.7082039"></polygon>
            <polygon id="Star" points="95 67 85.595436 74.4164079 87.3915479 58.7082039 79.7830957 47.5835921 90.297718 45.2917961 95 31 99.702282 45.2917961 110.216904 47.5835921 102.608452 58.7082039 104.404564 74.4164079"></polygon>
            <polygon id="Star" points="145.5 11.6085145 142.100813 14 142.75 8.93475242 140 5.34752416 143.800407 4.60851449 145.5 0 147.199593 4.60851449 151 5.34752416 148.25 8.93475242 148.899187 14"></polygon>
            <polygon id="Star" points="5.5 245.608514 2.10081306 248 2.75 242.934752 -1.28230759e-14 239.347524 3.80040653 238.608514 5.5 234 7.19959347 238.608514 11 239.347524 8.25 242.934752 8.89918694 248"></polygon>
            <polygon id="Star" points="237.5 100.608514 234.100813 103 234.75 97.9347524 232 94.3475242 235.800407 93.6085145 237.5 89 239.199593 93.6085145 243 94.3475242 240.25 97.9347524 240.899187 103"></polygon>
        </g>
        <g id="black-stars" transform="translate(190.000000, 39.000000)" fill-opacity="0.2" fill="#150D0D">
            <polygon id="Star" points="228.5 11.6085145 225.100813 14 225.75 8.93475242 223 5.34752416 226.800407 4.60851449 228.5 0 230.199593 4.60851449 234 5.34752416 231.25 8.93475242 231.899187 14"></polygon>
            <polygon id="Star" points="309.5 76.6085145 306.100813 79 306.75 73.9347524 304 70.3475242 307.800407 69.6085145 309.5 65 311.199593 69.6085145 315 70.3475242 312.25 73.9347524 312.899187 79"></polygon>
            <polygon id="Star" points="5.5 189.608514 2.10081306 192 2.75 186.934752 -1.28230759e-14 183.347524 3.80040653 182.608514 5.5 178 7.19959347 182.608514 11 183.347524 8.25 186.934752 8.89918694 192"></polygon>
        </g>
        <g id="blue-stars" transform="translate(465.000000, 124.000000)" fill="#5DE7E3">
            <polygon id="Star" points="178.5 69.6085145 175.100813 72 175.75 66.9347524 173 63.3475242 176.800407 62.6085145 178.5 58 180.199593 62.6085145 184 63.3475242 181.25 66.9347524 181.899187 72"></polygon>
            <polygon id="Star" points="148.5 39.6085145 145.100813 42 145.75 36.9347524 143 33.3475242 146.800407 32.6085145 148.5 28 150.199593 32.6085145 154 33.3475242 151.25 36.9347524 151.899187 42"></polygon>
            <polygon id="Star" points="167.5 11.6085145 164.100813 14 164.75 8.93475242 162 5.34752416 165.800407 4.60851449 167.5 0 169.199593 4.60851449 173 5.34752416 170.25 8.93475242 170.899187 14"></polygon>
            <polygon id="Star" points="189.5 39.6085145 186.100813 42 186.75 36.9347524 184 33.3475242 187.800407 32.6085145 189.5 28 191.199593 32.6085145 195 33.3475242 192.25 36.9347524 192.899187 42"></polygon>
            <polygon id="Star" points="200.5 55.6085145 197.100813 58 197.75 52.9347524 195 49.3475242 198.800407 48.6085145 200.5 44 202.199593 48.6085145 206 49.3475242 203.25 52.9347524 203.899187 58"></polygon>
            <polygon id="Star" points="223.5 18.6085145 220.100813 21 220.75 15.9347524 218 12.3475242 221.800407 11.6085145 223.5 7 225.199593 11.6085145 229 12.3475242 226.25 15.9347524 226.899187 21"></polygon>
            <polygon id="Star" points="10.5 119.900311 4.01064312 124 5.25 115.316718 1.33226763e-15 109.167184 7.25532156 107.900311 10.5 100 13.7446784 107.900311 21 109.167184 15.75 115.316718 16.9893569 124"></polygon>
        </g>
        <polygon id="Star" fill="#D8D8D8" points="587.5 312.583592 574.830303 320 577.25 304.291796 567 293.167184 581.165152 290.875388 587.5 276.583592 593.834848 290.875388 608 293.167184 597.75 304.291796 600.169697 320"></polygon>
        <polygon id="Star" fill="#D8D8D8" points="851.216904 87.9003106 841.81234 92 843.608452 83.3167184 836 77.1671843 846.514622 75.9003106 851.216904 68 855.919186 75.9003106 866.433809 77.1671843 858.825356 83.3167184 860.621468 92"></polygon>
        <g id="dark-yellow-stars" transform="translate(734.000000, 207.000000)" fill-opacity="0.74" fill="#B5BA45">
            <polygon id="Star" points="127.5 19.9003106 121.010643 24 122.25 15.3167184 117 9.16718427 124.255322 7.90031056 127.5 0 130.744678 7.90031056 138 9.16718427 132.75 15.3167184 133.989357 24"></polygon>
            <polygon id="Star" points="86.5 81.6085145 83.1008131 84 83.75 78.9347524 81 75.3475242 84.8004065 74.6085145 86.5 70 88.1995935 74.6085145 92 75.3475242 89.25 78.9347524 89.8991869 84"></polygon>
            <polygon id="Star" points="185.5 117.608514 182.100813 120 182.75 114.934752 180 111.347524 183.800407 110.608514 185.5 106 187.199593 110.608514 191 111.347524 188.25 114.934752 188.899187 120"></polygon>
            <polygon id="Star" points="5.5 23.6085145 2.10081306 26 2.75 20.9347524 4.40203429e-14 17.3475242 3.80040653 16.6085145 5.5 12 7.19959347 16.6085145 11 17.3475242 8.25 20.9347524 8.89918694 26"></polygon>
        </g>
        <g id="pink-stars" transform="translate(343.000000, 145.000000)" fill-opacity="0.5" fill="#C630BB">
            <polygon id="Star" points="122.5 129.608514 119.100813 132 119.75 126.934752 117 123.347524 120.800407 122.608514 122.5 118 124.199593 122.608514 128 123.347524 125.25 126.934752 125.899187 132"></polygon>
            <polygon id="Star" points="5.5 11.6085145 2.10081306 14 2.75 8.93475242 4.40203429e-14 5.34752416 3.80040653 4.60851449 5.5 0 7.19959347 4.60851449 11 5.34752416 8.25 8.93475242 8.89918694 14"></polygon>
        </g>
    </g>
</svg>
